<svg width="120" height="86" viewBox="0 0 120 86" fill="none" xmlns="http://www.w3.org/2000/svg">
<path d="M102.696 43.6388C102.696 46.8653 101.212 49.8824 100.521 52.9016C99.8065 56.018 99.8075 59.3729 98.4402 62.1847C97.0503 65.0432 94.3923 67.127 92.4169 69.5826C90.4307 72.0499 88.9683 75.0817 86.4818 77.0516C84.0082 79.0118 80.7077 79.7583 77.8279 81.1374C74.9933 82.4942 72.3568 84.6023 69.2162 85.3109C66.1736 85.997 62.882 85.2495 59.6305 85.2495C56.38 85.2495 53.0873 85.997 50.0458 85.3109C46.9041 84.6023 44.2677 82.4932 41.433 81.1374C38.5523 79.7583 35.2528 79.0118 32.7782 77.0516C30.2917 75.0807 28.8303 72.0489 26.8441 69.5826C24.8687 67.127 22.2106 65.0432 20.8208 62.1847C19.4535 59.3729 19.4545 56.018 18.7404 52.9016C18.0489 49.8824 16.564 46.8653 16.564 43.6388C16.564 40.4124 18.0489 37.3952 18.7404 34.3771C19.4545 31.2596 19.4535 27.9057 20.8208 25.0929C22.2106 22.2344 24.8687 20.1506 26.8451 17.695C28.8303 15.2277 30.2917 12.196 32.7791 10.2261C35.2528 8.26586 38.5533 7.51936 41.434 6.14021C44.2677 4.78443 46.9041 2.67532 50.0458 1.96677C53.0873 1.28061 56.38 2.02908 59.6305 2.02908C62.882 2.02908 66.1736 1.28061 69.2162 1.96677C72.3568 2.67532 74.9933 4.78443 77.8279 6.14021C80.7077 7.52033 84.0082 8.26586 86.4818 10.2261C88.9692 12.1969 90.4307 15.2287 92.4169 17.695C94.3923 20.1506 97.0503 22.2344 98.4402 25.0929C99.8075 27.9057 99.8065 31.2596 100.521 34.3771C101.212 37.3952 102.696 40.4124 102.696 43.6388Z" fill="#F7F4F0"/>
<path d="M59.6295 83.5769C60.7626 83.5769 61.8985 83.6678 62.9979 83.7558C65.0639 83.9201 67.0146 84.0758 68.844 83.6591C70.7552 83.2222 72.5423 82.1685 74.2697 81.1506C75.1902 80.6083 76.1405 80.0476 77.112 79.5759C78.1065 79.0945 79.1511 78.6875 80.162 78.2931C82.1059 77.5362 83.942 76.8208 85.4415 75.6183C86.9468 74.4099 88.0472 72.7685 89.2129 71.0304C89.817 70.1285 90.4431 69.1957 91.1289 68.3314C91.8099 67.475 92.5726 66.6601 93.3104 65.8722C94.7416 64.3429 96.094 62.8997 96.9365 61.1422C97.7647 59.4187 98.0484 57.4592 98.3504 55.3857C98.5072 54.3059 98.6688 53.1884 98.915 52.1009C99.1526 51.0521 99.4825 49.9994 99.8019 48.9824C100.405 47.0626 101.028 45.078 101.028 43.0866C101.028 41.0953 100.405 39.1107 99.8019 37.1909C99.4825 36.1739 99.1526 35.1212 98.915 34.0733C98.6688 32.9858 98.5072 31.8683 98.3504 30.7885C98.0494 28.714 97.7647 26.7546 96.9365 25.031C96.0949 23.2745 94.7425 21.8313 93.3113 20.302C92.5736 19.5141 91.8109 18.6992 91.1289 17.8418C90.4431 16.9776 89.817 16.0447 89.2129 15.1428C88.0472 13.4047 86.9468 11.7633 85.4415 10.5559C83.943 9.35339 82.1068 8.63803 80.162 7.88015C79.1511 7.48575 78.1075 7.07877 77.112 6.59737C76.1415 6.12659 75.1902 5.56594 74.2707 5.02364C72.5423 4.00475 70.7561 2.95106 68.844 2.51411C67.0146 2.09651 65.0639 2.25214 62.9979 2.41745C61.8985 2.50542 60.7626 2.59726 59.6295 2.59726C58.4965 2.59726 57.3596 2.50542 56.2602 2.41745C54.1951 2.25214 52.2435 2.09651 50.4151 2.51411C48.5029 2.95106 46.7168 4.00378 44.9893 5.02364C44.0688 5.56594 43.1185 6.12662 42.1471 6.59642C41.1535 7.0788 40.1089 7.48575 39.098 7.87918C37.1532 8.63803 35.3161 9.35339 33.8185 10.5559C32.3132 11.7633 31.2128 13.4038 30.048 15.1419C29.4421 16.0447 28.8169 16.9776 28.1301 17.8418C27.4491 18.6992 26.6864 19.5141 25.9487 20.302C24.5165 21.8313 23.1641 23.2745 22.3216 25.031C21.4944 26.7546 21.2097 28.714 20.9086 30.7885C20.7528 31.8683 20.5902 32.9858 20.344 34.0733C20.1074 35.1212 19.7775 36.1739 19.4572 37.1909C18.8541 39.1107 18.2318 41.0953 18.2318 43.0866C18.2318 45.078 18.8541 47.0626 19.4572 48.9824C19.7775 49.9994 20.1074 51.0521 20.344 52.1009C20.5902 53.1884 20.7528 54.3059 20.9086 55.3857C21.2097 57.4592 21.4944 59.4187 22.3216 61.1422C23.1641 62.8987 24.5165 64.3429 25.9487 65.8713C26.6864 66.6591 27.4491 67.474 28.1301 68.3314C28.8159 69.1957 29.4421 70.1285 30.0471 71.0314C31.2119 72.7685 32.3122 74.4099 33.8175 75.6173C35.3151 76.8199 37.1522 77.5352 39.0971 78.2931C40.108 78.6865 41.1525 79.0945 42.1471 79.5759C43.1185 80.0466 44.0688 80.6083 44.9893 81.1506C46.7168 82.1685 48.5029 83.2222 50.4151 83.6591C52.2445 84.0767 54.1961 83.9201 56.2611 83.7558C57.3605 83.6678 58.4965 83.5769 59.6295 83.5769ZM66.147 85.6002C65.0495 85.6002 63.9472 85.5132 62.8652 85.4252C61.7994 85.3402 60.6962 85.2522 59.6295 85.2522C58.5628 85.2522 57.4596 85.3402 56.3939 85.4252C54.2942 85.5934 52.1233 85.7684 50.0457 85.2928C47.8816 84.7988 45.9829 83.6785 44.1448 82.5948C43.2137 82.0457 42.3327 81.5266 41.4218 81.0848C40.4879 80.6315 39.4751 80.2371 38.494 79.8552C36.5184 79.0857 34.4754 78.2902 32.7768 76.9272C31.0724 75.5593 29.848 73.7333 28.6649 71.9671C28.0782 71.0923 27.4722 70.1884 26.8278 69.3764C26.1882 68.5722 25.4822 67.8191 24.7339 67.0197C23.2796 65.4652 21.7752 63.8586 20.8201 61.8711C19.8814 59.9146 19.5649 57.7347 19.2591 55.6264C19.1071 54.5795 18.9503 53.4958 18.7185 52.4721C18.4963 51.4909 18.1914 50.5165 17.8673 49.486C17.2267 47.4454 16.564 45.3361 16.564 43.0866C16.564 40.8372 17.2267 38.7279 17.8673 36.6862C18.1914 35.6557 18.4963 34.6833 18.7185 33.7021C18.9503 32.6774 19.1071 31.5947 19.2591 30.5459C19.5649 28.4385 19.8814 26.2587 20.8201 24.3031C21.7752 22.3146 23.2796 20.708 24.7339 19.1536C25.4822 18.3551 26.1882 17.6001 26.8278 16.7968C27.4722 15.9848 28.0782 15.08 28.6649 14.2052C29.8489 12.439 31.0734 10.6139 32.7778 9.24608C34.4764 7.88306 36.5193 7.08749 38.4959 6.31801C39.4751 5.93617 40.4888 5.5408 41.4228 5.08839C42.3337 4.64662 43.2137 4.1275 44.1458 3.57746C45.9829 2.49478 47.8816 1.37441 50.0457 0.88044C52.1233 0.406761 54.2942 0.579811 56.3929 0.748016C57.4596 0.833084 58.5628 0.921028 59.6295 0.921028C60.6962 0.921028 61.7994 0.833084 62.8652 0.748016C64.9649 0.579811 67.1358 0.4058 69.2143 0.88044C71.3775 1.37441 73.2771 2.49478 75.1142 3.57746C76.0463 4.1275 76.9263 4.64662 77.8362 5.08839C78.7712 5.54176 79.784 5.93617 80.7641 6.31801C82.7397 7.08749 84.7836 7.88403 86.4813 9.24608C88.1866 10.6139 89.4101 12.44 90.5941 14.2061C91.1808 15.081 91.7887 15.9848 92.4332 16.7968C93.0709 17.6011 93.7778 18.3551 94.5242 19.1536C95.9805 20.708 97.4848 22.3146 98.4389 24.3031C99.3777 26.2587 99.6932 28.4385 100 30.5459C100.152 31.5947 100.309 32.6774 100.541 33.7021C100.763 34.6833 101.068 35.6557 101.391 36.6862C102.032 38.7279 102.696 40.8372 102.696 43.0866C102.696 45.3361 102.032 47.4454 101.392 49.486C101.068 50.5165 100.763 51.4909 100.541 52.4721C100.309 53.4958 100.152 54.5795 100 55.6274C99.6932 57.7347 99.3777 59.9146 98.4389 61.8711C97.4848 63.8596 95.9795 65.4662 94.5242 67.0206C93.7769 67.8191 93.0709 68.5731 92.4322 69.3774C91.7878 70.1884 91.1818 71.0923 90.5941 71.9671C89.4101 73.7333 88.1866 75.5593 86.4813 76.9272C84.7827 78.2902 82.7397 79.0858 80.7641 79.8562C79.784 80.2371 78.7712 80.6324 77.8362 81.0848C76.9263 81.5266 76.0453 82.0457 75.1142 82.5948C73.2771 83.6785 71.3765 84.7988 69.2143 85.2928C68.2072 85.5229 67.179 85.6002 66.147 85.6002Z" fill="#FEA900"/>
<path d="M59.6295 80.8456C60.6731 80.8456 61.7226 80.9299 62.7392 81.0103C64.673 81.1654 66.4987 81.3118 68.2298 80.9163C70.0362 80.5043 71.7093 79.5185 73.3274 78.5656C74.1761 78.0654 75.0556 77.5477 75.9486 77.1144C76.8639 76.6714 77.8294 76.2953 78.763 75.9318C80.5828 75.2232 82.3033 74.5544 83.7196 73.4192C85.1427 72.2783 86.1729 70.7438 87.2629 69.1181C87.8228 68.2855 88.4011 67.4237 89.0325 66.6288C89.6601 65.8417 90.3649 65.0895 91.0465 64.3615C92.3267 62.9947 93.6513 61.5804 94.4488 59.9227C95.2308 58.2942 95.4973 56.4611 95.7782 54.5214C95.924 53.524 96.0736 52.4935 96.3005 51.4922C96.5187 50.5296 96.8238 49.5583 97.1192 48.618C97.6831 46.8227 98.2672 44.9654 98.2672 43.0868C98.2672 41.2072 97.6831 39.3508 97.1192 37.5556C96.8238 36.6163 96.5187 35.6449 96.3005 34.6814C96.0736 33.68 95.924 32.6496 95.7782 31.6521C95.4973 29.7114 95.2308 27.8803 94.4488 26.2518C93.6513 24.5932 92.3277 23.1799 91.0475 21.813C90.3649 21.0851 89.6601 20.3328 89.0325 19.5447C88.4011 18.7508 87.8228 17.8891 87.2638 17.0564C86.1729 15.4308 85.1427 13.8953 83.7196 12.7553C82.3033 11.6192 80.5828 10.9503 78.763 10.2417C77.8303 9.87822 76.8639 9.50211 75.9486 9.05911C75.0566 8.62677 74.1761 8.10914 73.3274 7.60894C71.7093 6.65508 70.0362 5.67021 68.2298 5.25726C66.4978 4.86176 64.673 5.00811 62.7392 5.16321C61.7226 5.24464 60.6731 5.32802 59.6295 5.32802C58.5858 5.32802 57.5364 5.24464 56.5207 5.16321C54.5859 5.00908 52.7593 4.86272 51.0292 5.25726C49.2228 5.67021 47.5506 6.65508 45.9335 7.607C45.0829 8.10913 44.2043 8.62677 43.3103 9.05911C42.3951 9.50211 41.4306 9.87822 40.497 10.2408C38.6752 10.9494 36.9557 11.6192 35.5394 12.7553C34.1163 13.8953 33.0861 15.4308 31.9952 17.0564C31.4362 17.8891 30.8578 18.7508 30.2264 19.5447C29.5999 20.3328 28.8951 21.0851 28.2135 21.813C26.9313 23.1789 25.6067 24.5932 24.8112 26.2508C24.0282 27.8803 23.7617 29.7114 23.4798 31.6521C23.335 32.6496 23.1853 33.68 22.9585 34.6814C22.7403 35.6449 22.4361 36.6163 22.1407 37.5556C21.5759 39.3508 20.9928 41.2072 20.9928 43.0868C20.9928 44.9664 21.5759 46.8227 22.1407 48.618C22.4361 49.5583 22.7403 50.5296 22.9585 51.4922C23.1853 52.4935 23.335 53.524 23.4798 54.5205C23.7617 56.4602 24.0282 58.2932 24.8112 59.9218C25.6067 61.5804 26.9313 62.9937 28.2135 64.3615C28.8951 65.0885 29.5999 65.8407 30.2264 66.6288C30.8578 67.4237 31.4362 68.2845 31.9952 69.1172C33.0861 70.7428 34.1163 72.2783 35.5384 73.4192C36.9557 74.5544 38.6752 75.2232 40.496 75.9318C41.4296 76.2953 42.3951 76.6714 43.3103 77.1144C44.2043 77.5468 45.0829 78.0654 45.9335 78.5666C47.5506 79.5185 49.2228 80.5043 51.0292 80.9163C52.7602 81.3118 54.5859 81.1654 56.5197 81.0103C57.5364 80.9299 58.5858 80.8456 59.6295 80.8456ZM53.5799 82.288C52.6367 82.288 51.6973 82.2172 50.783 82.0088C48.8077 81.558 47.0592 80.5276 45.3687 79.5321C44.4988 79.0193 43.6782 78.5355 42.8247 78.1236C41.95 77.699 41.0058 77.3316 40.0925 76.9768C38.2735 76.2682 36.3928 75.5363 34.8433 74.2936C33.2869 73.046 32.1593 71.3671 31.0702 69.7434C30.5228 68.9282 29.958 68.0867 29.3546 67.3268C28.756 66.5755 28.0667 65.8398 27.4005 65.1282C26.0624 63.7004 24.677 62.2221 23.8052 60.4094C22.9488 58.6248 22.6572 56.6211 22.3763 54.6823C22.2344 53.7072 22.0876 52.6981 21.8714 51.7403C21.6628 50.8223 21.378 49.916 21.0758 48.9553C20.4869 47.0796 19.8767 45.1389 19.8767 43.0868C19.8767 41.0346 20.4869 39.094 21.0758 37.2182C21.378 36.2586 21.6628 35.3512 21.8714 34.4333C22.0876 33.4755 22.2344 32.4664 22.3763 31.4902C22.6582 29.5525 22.9488 27.5478 23.8052 25.7642C24.677 23.9515 26.0624 22.4742 27.4005 21.0453C28.0677 20.3338 28.756 19.5981 29.3546 18.8458C29.958 18.0868 30.5228 17.2454 31.0702 16.4302C32.1593 14.8065 33.2869 13.1275 34.8433 11.88C36.3938 10.6372 38.2735 9.90536 40.0934 9.19675C41.0068 8.84196 41.951 8.47457 42.8257 8.04999C43.6782 7.63703 44.4988 7.15429 45.3687 6.64149C47.0592 5.64595 48.8077 4.61554 50.783 4.16575C52.6792 3.73244 54.6767 3.8924 56.6095 4.04749C57.602 4.12601 58.6312 4.2084 59.6295 4.2084C60.6278 4.2084 61.656 4.12601 62.6494 4.04749C64.5823 3.8924 66.5798 3.73244 68.477 4.16575C70.4523 4.61554 72.2007 5.64595 73.8912 6.64149C74.7602 7.15429 75.5808 7.63703 76.4333 8.04999C77.309 8.47457 78.2532 8.84196 79.1656 9.19772C80.9855 9.90536 82.8662 10.6382 84.4167 11.88C85.972 13.1275 87.0997 14.8065 88.1887 16.4302C88.7362 17.2454 89.3009 18.0868 89.9044 18.8458C90.5039 19.599 91.1923 20.3338 91.8594 21.0453C93.1985 22.4742 94.582 23.9515 95.4538 25.7642C96.3102 27.5488 96.6018 29.5525 96.8827 31.4902C97.0246 32.4664 97.1723 33.4755 97.3876 34.4333C97.5962 35.3512 97.881 36.2586 98.1832 37.2182C98.7731 39.0949 99.3832 41.0346 99.3832 43.0868C99.3832 45.138 98.7731 47.0786 98.1832 48.9553C97.881 49.915 97.5962 50.8223 97.3876 51.7403C97.1723 52.6981 97.0246 53.7072 96.8827 54.6833C96.6018 56.622 96.3102 58.6257 95.4538 60.4094C94.582 62.223 93.1975 63.7004 91.8585 65.1292C91.1923 65.8407 90.5029 66.5765 89.9044 67.3277C89.3009 68.0867 88.7362 68.9291 88.1878 69.7444C87.0987 71.3681 85.972 73.046 84.4167 74.2936C82.8652 75.5363 80.9855 76.2692 79.1656 76.9768C78.2532 77.3316 77.309 77.7 76.4333 78.1236C75.5808 78.5365 74.7602 79.0193 73.8912 79.5321C72.2007 80.5276 70.4523 81.558 68.477 82.0088C66.5798 82.4402 64.5823 82.2812 62.6504 82.1271C61.656 82.0476 60.6287 81.9652 59.6295 81.9652C58.6312 81.9652 57.602 82.0476 56.6086 82.1271C55.6093 82.2075 54.5908 82.288 53.5799 82.288Z" fill="#FEA900"/>
<path d="M48.8166 6.2758C45.564 8.84158 46.4035 6.95439 42.2694 9.17109C41.1664 9.76266 40.8482 10.9683 38.7221 11.6665C33.9037 13.2495 35.1668 16.1879 28.278 21.7037C25.9449 23.5723 23.7378 27.8033 23.9702 30.021C24.2288 32.4929 23.896 33.4971 23.7408 34.5346C23.5719 35.662 22.4932 39.2271 21.8109 40.6302C19.8536 44.653 22.337 43.6458 22.8466 49.5997C22.8495 49.63 23.8091 55.8098 23.8091 55.8098C24.6447 60.9325 26.2612 61.1164 28.0017 63.3448C31.8069 68.2153 32.1954 71.929 37.3408 74.3706C37.862 74.617 43.6986 77.0713 44.2579 77.2053C45.2517 77.4429 46.2874 77.5485 47.2206 77.9944C49.3789 79.027 48.8479 80.391 52.3103 80.9591C55.5629 81.492 56.0364 80.9044 57.7603 80.2375C59.7136 79.4826 61.9812 79.9872 64.0136 80.1407C67.561 80.4067 65.8498 80.6296 70.2729 79.9021C73.258 79.4113 73.0832 78.1225 74.7486 76.7193C76.1064 75.5753 80.4807 74.4801 82.5843 73.1161C86.8668 70.3381 86.7262 68.6006 88.1202 66.5227C89.2603 64.8233 92.8956 62.1949 94.1256 59.8296C94.6215 58.8743 94.6576 58.2299 95.1759 54.0067C95.9247 47.9061 96.6441 50.6411 97.9492 46.2038C99.0543 42.4451 98.5603 42.3004 97.3411 40.4464C96.7749 39.5859 96.4293 38.7264 96.4303 37.6841C96.4313 35.6346 97.3499 35.3129 94.7894 28.7137C92.7091 23.3494 91.5036 24.4866 90.2053 21.3879C88.8162 18.0702 88.413 18.7517 86.57 16.5643C85.177 14.9118 84.9486 12.8565 83.2813 11.9901C82.4535 11.5609 77.3569 10.2741 74.7886 8.69002C73.585 7.94492 69.9195 5.18748 66.8943 5.35762C65.8625 5.41629 64.8502 5.68423 63.8174 5.76343C59.3876 6.10371 60.393 6.41756 54.496 5.52483C51.7764 5.11317 51.34 4.284 48.8166 6.2758ZM54.5282 82.288C49.373 82.288 48.271 80.5025 47.6306 80.1778C47.2616 79.9911 46.8408 79.9373 46.4699 79.7584C45.811 79.4406 45.5777 78.6808 44.8368 78.4813C41.5851 77.6072 45.6216 78.9673 39.338 76.4397C30.8814 73.0359 31.8039 70.2491 27.2189 64.1779C25.9674 62.5205 24.3206 61.3716 23.5465 59.369C22.5235 56.726 22.4151 52.9956 21.9475 51.4311C21.8226 51.0107 21.5629 50.6558 21.3599 50.2724C20.903 49.413 21.026 48.3843 20.8005 47.4495C20.2139 45.0304 19.717 46.7953 19.9249 41.4438C19.9649 40.4073 20.5223 39.5517 20.8152 38.5778C23.0711 31.078 22.3126 33.3006 22.0539 30.9939C21.9788 30.3212 22.2853 25.9005 24.4133 23.9566C25.1767 23.2604 26.064 22.6982 26.7317 21.8983C27.4043 21.0936 27.8983 20.1597 28.483 19.2924C29.0667 18.4271 29.7413 17.6233 30.3397 16.7658C32.2061 14.0934 31.7102 14.5129 34.587 12.3128C35.4226 11.6733 36.2152 10.9263 37.1758 10.4755C38.0514 10.0648 39.0383 9.9025 39.9247 9.51431C40.3835 9.3119 40.6685 8.9413 41.0463 8.63036C41.4338 8.31257 41.8741 8.0603 42.3182 7.83149C45.2272 6.34131 45.6099 7.36019 47.8707 5.5835C50.1891 3.76282 50.7924 3.5741 53.7766 4.23314C56.091 4.74258 55.8226 4.24293 56.9608 4.31431C58.0365 4.3808 59.0352 4.65849 60.1285 4.6008C62.8217 4.45608 62.8266 4.04932 64.8405 4.41209C65.3969 4.5128 65.9972 4.30354 66.5585 4.25171C70.3734 3.89677 74.1619 6.93875 75.1166 7.56064C77.763 9.2767 82.7981 10.4295 83.9324 11.0583C85.7959 12.0918 86.1327 14.2811 87.4154 15.8173C89.1881 17.9401 89.4605 17.1266 91.1161 20.6232C91.9604 22.4097 94.0319 21.9883 96.7905 31.0643C97.1146 32.1282 97.4348 33.2135 97.6408 34.3077C97.8448 35.3872 97.4729 36.4755 97.7442 37.5394C97.8545 37.9726 98.041 38.3862 98.1386 38.8223C98.2597 39.362 98.2967 39.8108 98.5974 40.2939C99.1265 41.1426 99.3832 42.0217 99.3832 43.0239C99.3823 44.8417 99.1938 46.857 98.3211 48.4899C96.6939 51.5377 96.8452 49.0795 95.8622 57.5992C95.257 62.8432 90.5508 64.6189 88.8279 67.5171C87.677 69.4522 87.6438 70.5503 85.1975 72.5362C81.9215 75.1949 81.6609 74.8429 77.273 76.6665C72.9534 78.4618 75.2982 80.345 69.65 81.1351C64.9752 81.7893 69.2713 81.8978 60.2808 81.5869C58.3401 81.5204 58.1488 81.3297 57.4723 81.583C56.4698 81.9565 55.6186 82.288 54.5282 82.288Z" fill="#FEA900"/>
<path d="M117.257 40.985C116.366 40.1194 114.882 39.7061 112.856 39.7495C110.347 39.806 108.331 40.1666 106.382 40.5143C103.836 40.9693 101.205 41.439 97.6081 41.1782C96.7321 41.1144 95.9164 40.7482 95.3061 40.1453C95.0083 39.8513 94.6394 39.6303 94.2218 39.5285L93.3487 39.3159L91.948 44.3787L92.2459 38.4031V37.4414C92.2459 36.5953 91.5246 35.9092 90.634 35.9092H28.6251C27.7354 35.9092 27.0132 36.5953 27.0132 37.4414V38.614C27.0132 38.8683 26.8312 39.0912 26.5713 39.155L25.0373 39.5285C24.6246 39.6284 24.2537 39.8383 23.9637 40.1333C23.3193 40.7917 22.3858 41.1311 21.4417 41.193C17.9541 41.4205 15.3737 40.9609 12.8761 40.5143C10.9274 40.1666 8.91258 39.806 6.40325 39.7495C4.36114 39.6996 2.87482 40.125 1.98517 41.0007C1.06145 41.9115 1.10427 43.0378 1.10524 43.0489L1.10719 43.0869L1.10524 43.1257C1.10232 43.1673 1.06145 44.277 2.00172 45.1888C2.89332 46.0552 4.36698 46.4649 6.40325 46.4251C8.91258 46.3687 10.9274 46.009 12.8771 45.6603C14.9172 45.296 17.0129 44.9206 19.6137 44.9206C20.26 44.9206 20.9365 44.9437 21.6519 44.9964C22.526 45.0593 23.3417 45.4255 23.9529 46.0293C24.2508 46.3243 24.6207 46.5444 25.0382 46.6461L25.9104 46.8588L27.3101 41.7959L27.0132 47.7715V48.7332C27.0132 49.5784 27.7354 50.2645 28.6251 50.2645H90.634C91.5246 50.2645 92.2459 49.5784 92.2459 48.7332V47.5606C92.2459 47.3054 92.4279 47.0826 92.6878 47.0197L94.2218 46.6461C94.6394 46.5444 95.0092 46.3243 95.3061 46.0293C95.9164 45.4255 96.7331 45.0593 97.6081 44.9964C101.201 44.7319 103.836 45.2054 106.381 45.6603C108.331 46.009 110.347 46.3687 112.856 46.4251C114.886 46.4676 116.384 46.0487 117.274 45.173C118.199 44.2631 118.156 43.1368 118.155 43.1257L118.152 43.0869L118.155 43.0489C118.157 43.0064 118.198 41.8977 117.257 40.985Z" fill="#F7F4F0"/>
<path d="M117.913 43.6796C117.914 43.6911 117.957 44.867 117.036 45.8178C116.15 46.7311 114.658 47.1684 112.636 47.124C110.138 47.0651 108.13 46.6896 106.188 46.3256C103.653 45.8507 101.029 45.3564 97.4515 45.6325C96.5801 45.6981 95.7668 46.0804 95.159 46.7108C94.8634 47.0188 94.495 47.2485 94.0792 47.3547L92.5515 47.7447C92.2927 47.8103 92.1114 48.043 92.1114 48.3095V49.5335C92.1114 50.4159 91.3931 51.1322 90.5062 51.1322H28.7534C27.8675 51.1322 27.1482 50.4159 27.1482 49.5335V48.5296L27.4439 42.2914L26.0499 47.5767L25.1814 47.3547C24.7656 47.2485 24.3972 47.0188 24.1006 46.7108C23.4919 46.0804 22.6795 45.6981 21.8091 45.6325C21.0966 45.5775 20.4229 45.5533 19.7793 45.5533C17.1892 45.5533 15.1022 45.9453 13.0705 46.3256C11.1289 46.6896 9.12236 47.0651 6.6234 47.124C4.59554 47.1655 3.12796 46.7378 2.24005 45.8333C1.30367 44.8814 1.34437 43.723 1.34728 43.6796L1.34922 43.639L1.34728 43.5994C1.34631 43.5878 1.30366 42.412 2.22357 41.4612C3.10954 40.547 4.58973 40.1029 6.6234 40.155C9.12236 40.2139 11.1289 40.5904 13.0695 40.9534C15.5568 41.4187 18.1266 41.8994 21.5997 41.662C22.54 41.5973 23.4696 41.243 24.1113 40.5556C24.4001 40.2477 24.7694 40.0286 25.1804 39.9243L26.7081 39.5343C26.9669 39.4677 27.1482 39.235 27.1482 38.9695V37.7455C27.1482 36.8622 27.8675 36.1458 28.7534 36.1458H90.5062C91.3931 36.1458 92.1114 36.8622 92.1114 37.7455V38.7494L91.8148 44.9876L93.2097 39.7023L94.0792 39.9243C94.495 40.0305 94.8624 40.2612 95.159 40.5682C95.7668 41.1976 96.5791 41.5799 97.4515 41.6465C101.033 41.9187 103.653 41.4283 106.189 40.9534C108.13 40.5904 110.138 40.2139 112.636 40.155C114.654 40.1096 116.132 40.5412 117.02 41.4448C117.956 42.3976 117.915 43.555 117.913 43.5994L117.91 43.639L117.913 43.6796ZM118.005 40.5296C116.846 39.3354 115.028 38.7466 112.604 38.8141C109.997 38.8749 107.934 39.2621 105.94 39.6347C103.378 40.1154 100.957 40.5692 97.5533 40.3095C97.0066 40.267 96.4957 40.0247 96.1177 39.6241C95.6543 39.1366 95.065 38.7919 94.4146 38.6249L93.4588 38.3807V37.7455C93.4588 36.1237 92.1337 34.805 90.5062 34.805H28.7534C27.1259 34.805 25.8008 36.1237 25.8008 37.7455V38.3807L24.846 38.6249C24.1937 38.7919 23.6053 39.1366 23.1439 39.6241C22.7639 40.0247 22.253 40.267 21.7063 40.3095C18.303 40.5701 15.8825 40.1154 13.3186 39.6347C11.3257 39.2621 9.26291 38.8749 6.65538 38.8141C4.23203 38.7543 2.41356 39.3354 1.2552 40.5296C0.00959424 41.8145 -0.00687879 43.3658 0.000875928 43.639C-0.00687879 43.9122 0.00959424 45.4636 1.2552 46.7485C2.41356 47.9436 4.23397 48.5267 6.65538 48.4649C9.26388 48.4031 11.3257 48.017 13.3196 47.6443C15.8825 47.1636 18.3039 46.7108 21.7063 46.9695C22.253 47.011 22.7629 47.2543 23.1439 47.6549C23.6053 48.1415 24.1937 48.4871 24.846 48.6541L25.8008 48.8974V49.5335C25.8008 51.1544 27.1259 52.4731 28.7534 52.4731H90.5062C92.1337 52.4731 93.4588 51.1544 93.4588 49.5335V48.8974L94.4146 48.6541C95.066 48.4871 95.6543 48.1424 96.1177 47.6549C96.4957 47.2543 97.0066 47.011 97.5533 46.9695C100.959 46.7089 103.377 47.1636 105.94 47.6443C107.934 48.017 109.997 48.4031 112.604 48.4649C115.038 48.5267 116.846 47.9436 118.005 46.7485C119.25 45.4636 119.267 43.9122 119.259 43.639C119.267 43.3658 119.25 41.8145 118.005 40.5296Z" fill="#6E4115"/>
<path d="M116.031 41.2836C114.579 40.1309 112.498 40.2499 110.842 40.4698C108.84 40.7328 106.887 41.3255 104.911 41.7619C103.013 42.1802 101.095 42.4567 99.1647 42.459C97.6187 42.4613 96.1534 42.2244 94.9661 40.9538C96.1515 42.5678 97.866 42.9078 99.5843 43.0133C101.744 43.1447 103.9 42.8818 106.025 42.4386C108.166 41.992 110.294 41.4412 112.473 41.3629C114.02 41.3074 116.676 41.2666 117.032 43.6389C117.152 42.6528 116.709 41.8175 116.031 41.2836C116.442 41.6066 115.619 40.9572 116.031 41.2836Z" fill="#6E4115"/>
<path d="M23.545 44.8811C22.16 44.0378 20.1091 44.0317 18.4511 44.0378C16.3954 44.0439 14.3759 44.2783 12.3573 44.5706C10.3749 44.8575 8.40108 45.1597 6.37872 45.1734C4.89572 45.1848 2.5623 45.1186 2.23222 43.639C1.92877 45.3089 4.60844 45.7785 6.15232 45.8363C8.36493 45.9193 10.5785 45.5242 12.7283 45.1597C14.9257 44.7875 17.1393 44.4922 19.388 44.4397C21.1478 44.3986 22.92 44.4526 24.2936 45.442C24.0672 45.2343 23.8228 45.0447 23.545 44.8811C23.8095 45.0371 23.0199 44.5614 23.545 44.8811Z" fill="#6E4115"/>
<path d="M56.2229 36.9864C60.0765 36.9061 63.8661 36.4933 67.7177 36.4001C71.3961 36.3112 75.0892 36.3355 78.7518 36.5586C81.9586 36.7542 85.1141 36.8436 88.3405 36.7876C85.0196 36.6917 81.7685 36.4944 78.4781 36.2325C74.8322 35.9421 71.1322 35.8591 67.4509 35.9367C63.5983 36.0175 59.8116 36.4298 55.962 36.5241C52.2826 36.6135 48.5875 36.5887 44.9259 36.3656C41.7182 36.17 38.5626 36.0806 35.3362 36.1366C38.6581 36.2314 41.9082 36.4287 45.1986 36.6906C48.8445 36.9805 52.5425 37.063 56.2229 36.9864Z" fill="#6E4115"/>
<path d="M44.4601 42.4741C47.3313 42.305 50.1203 41.4894 52.9905 41.3051C55.7227 41.1306 58.4745 41.1726 61.1852 41.609C63.6258 42.0001 65.9959 42.194 68.464 42.0798C65.9157 41.8848 63.4683 41.4721 60.9611 40.9474C58.2494 40.3797 55.4683 40.2277 52.7155 40.384C49.8433 40.5477 47.0544 41.3644 44.1841 41.5508C41.4529 41.7275 38.7001 41.6822 35.9904 41.248C33.5488 40.8559 31.1787 40.663 28.7107 40.7783C31.258 40.9733 33.7074 41.386 36.2145 41.9117C38.9233 42.4795 41.7073 42.6368 44.4601 42.4741Z" fill="#6E4115"/>
<path d="M82.6141 44.2597C79.6739 43.6793 76.6523 43.5255 73.6715 43.7169C70.6858 43.9082 67.7756 44.7016 64.7899 44.8746C61.8855 45.0434 58.9725 44.9843 56.0895 44.5371C53.5785 44.149 51.1226 43.9845 48.5874 44.0953C51.2757 44.2888 53.8701 44.7037 56.5206 45.2272C59.3871 45.7937 62.3263 45.9496 65.2326 45.7862C68.2377 45.6153 71.1682 44.8123 74.1723 44.6252C77.1338 44.4403 80.1069 44.4984 83.0461 44.9531C85.5581 45.3412 88.0139 45.5056 90.5492 45.3938C87.8609 45.1982 85.2656 44.7843 82.6141 44.2597Z" fill="#6E4115"/>
<path d="M61.2642 49.2273C57.7679 49.4069 54.3369 50.213 50.8397 50.3946C47.4496 50.5698 44.0489 50.5075 40.6784 50.055C37.7837 49.668 34.9377 49.5068 32.0234 49.6164C35.1336 49.811 38.1619 50.228 41.239 50.7526C44.5812 51.3223 47.9898 51.4727 51.3681 51.3029C54.8663 51.1266 58.2973 50.3183 61.7965 50.1378C65.1865 49.9636 68.5853 50.026 71.9548 50.4774C74.8496 50.8644 77.6965 51.0267 80.6108 50.9149C77.5015 50.7203 74.4723 50.3033 71.3952 49.7787C68.052 49.208 64.6415 49.0543 61.2642 49.2273Z" fill="#6E4115"/>
<path d="M76.8172 40.293C78.3273 40.2027 79.8088 39.7998 81.3189 39.7094C82.7831 39.6203 84.2511 39.6521 85.7077 39.8779C86.9569 40.0721 88.186 40.1526 89.4448 40.0977C88.101 40.0012 86.7935 39.7912 85.4659 39.53C84.0217 39.2443 82.5499 39.1698 81.0914 39.2552C79.5794 39.3419 78.0989 39.7473 76.5878 39.8376C75.1236 39.9243 73.6565 39.8926 72.2009 39.6679C70.9507 39.4738 69.7216 39.3932 68.4639 39.4482C69.8067 39.5458 71.1142 39.7546 72.4427 40.0171C73.8859 40.3028 75.3587 40.3785 76.8172 40.293Z" fill="#6E4115"/>
<path d="M74.8711 16.1801H72.8237C72.7291 16.1801 72.6453 16.1162 72.6162 16.0227L71.9835 13.9814C71.9189 13.7715 71.6348 13.7715 71.5693 13.9814L70.9375 16.0227C70.9084 16.1162 70.8237 16.1801 70.7299 16.1801H68.6826C68.4714 16.1801 68.3831 16.4625 68.5542 16.5922L70.211 17.8542C70.2866 17.9124 70.3185 18.0145 70.2902 18.108L69.6566 20.1493C69.5929 20.3602 69.8214 20.5347 69.9916 20.405L71.6485 19.143C71.724 19.0848 71.8287 19.0848 71.9052 19.143L73.5611 20.405C73.7314 20.5347 73.9608 20.3602 73.8961 20.1493L73.2634 18.108C73.2343 18.0145 73.2671 17.9124 73.3426 17.8542L74.9995 16.5922C75.1697 16.4625 75.0823 16.1801 74.8711 16.1801Z" fill="#D91111"/>
<path d="M63.7559 12.5486H61.0258C60.8995 12.5486 60.789 12.4639 60.75 12.3384L59.9058 9.61781C59.8195 9.33661 59.4406 9.33661 59.3542 9.61781L58.5101 12.3384C58.4711 12.4639 58.3597 12.5486 58.2343 12.5486H55.5042C55.2228 12.5486 55.1058 12.9261 55.3324 13.0983L57.5425 14.7807C57.6437 14.8576 57.6865 14.9948 57.6475 15.1203L56.8033 17.8418C56.717 18.1221 57.0225 18.3546 57.2509 18.1814L59.4601 16.5C59.5613 16.4222 59.6988 16.4222 59.8009 16.5L62.0101 18.1814C62.2376 18.3546 62.5431 18.1221 62.4558 17.8418L61.6127 15.1203C61.5736 14.9948 61.6164 14.8576 61.7176 14.7807L63.9268 13.0983C64.1543 12.9261 64.0373 12.5486 63.7559 12.5486Z" fill="#D91111"/>
<path d="M50.5783 16.1801H48.5299C48.4361 16.1801 48.3523 16.1162 48.3232 16.0227L47.6905 13.9814C47.6249 13.7715 47.3418 13.7715 47.2763 13.9814L46.6435 16.0227C46.6144 16.1162 46.5306 16.1801 46.4369 16.1801H44.3885C44.1773 16.1801 44.0899 16.4625 44.261 16.5922L45.917 17.8542C45.9935 17.9124 46.0254 18.0145 45.9963 18.108L45.3635 20.1493C45.298 20.3602 45.5274 20.5347 45.6986 20.405L47.3555 19.143C47.4319 19.0848 47.5348 19.0848 47.6113 19.143L49.2682 20.405C49.4385 20.5347 49.6679 20.3602 49.6023 20.1493L48.9705 18.108C48.9405 18.0145 48.9723 17.9124 49.0488 17.8542L50.7057 16.5922C50.876 16.4625 50.7895 16.1801 50.5783 16.1801Z" fill="#D91111"/>
<path d="M40.4428 23.7624H41.9617V30.3879H40.4428V27.6586H39.0636V30.3879H37.5447V23.7624H39.0636V26.5649H40.4428V23.7624Z" fill="#00722A"/>
<path d="M45.1542 29.034V25.1174C45.1542 24.9436 45.0806 24.8562 44.932 24.8562H44.521C44.3673 24.8562 44.2905 24.9436 44.2905 25.1174V29.034C44.2905 29.2078 44.3673 29.2942 44.521 29.2942H44.932C45.0806 29.2942 45.1542 29.2078 45.1542 29.034ZM44.1535 23.7624H45.3003C46.0195 23.7624 46.3787 24.1446 46.3787 24.908V29.2312C46.3787 30.0027 46.0195 30.3879 45.3003 30.3879H44.1535C43.4284 30.3879 43.0659 30.0027 43.0659 29.2312V24.908C43.0659 24.1446 43.4284 23.7624 44.1535 23.7624Z" fill="#00722A"/>
<path d="M50.7957 23.7624V24.8562H49.7657V30.3879H48.5052V24.8562H47.4829V23.7624H50.7957Z" fill="#00722A"/>
<path d="M54.6518 24.9553V25.6951C54.6518 25.8789 54.7486 26.0799 54.9414 26.2964C55.1454 26.1646 55.2864 26.0578 55.3607 25.976C55.4341 25.8943 55.4707 25.7807 55.4707 25.6364V24.9553C55.4707 24.8639 55.4519 24.7995 55.4143 24.7639C55.3748 24.7273 55.3062 24.709 55.2112 24.709H54.9028C54.8125 24.709 54.7486 24.7273 54.7101 24.7639C54.6715 24.7995 54.6518 24.8639 54.6518 24.9553ZM54.5746 29.0671H55.9522L54.7486 27.7164L54.5558 27.8337C54.3951 27.9328 54.3151 28.081 54.3151 28.2782V28.8208C54.3151 28.9843 54.4007 29.0671 54.5746 29.0671ZM56.569 30.033H54.2277C53.4125 30.033 53.0044 29.6684 53.0044 28.9382V28.1993C53.0044 27.9097 53.0589 27.6865 53.168 27.5288C53.278 27.37 53.483 27.1997 53.7848 27.016L53.9973 26.8881C53.7453 26.6052 53.5686 26.3753 53.4623 26.1983C53.357 26.0203 53.3034 25.8298 53.3034 25.6259V24.8466C53.3034 24.1241 53.7105 23.7624 54.5267 23.7624H55.5761C56.38 23.7624 56.7815 24.1241 56.7815 24.8466V25.6162C56.7815 25.9645 56.7119 26.2339 56.5746 26.4234C56.4364 26.6148 56.2032 26.8149 55.876 27.0266L55.6926 27.143L56.7523 28.3571V27.6375H57.8412V28.9382C57.8412 29.1354 57.8064 29.3172 57.7349 29.4807L58.5257 30.3879H57.1388L56.8106 30.0233C56.7589 30.0301 56.6781 30.033 56.569 30.033Z" fill="#00722A"/>
<path d="M64.0469 23.7624V24.8562H62.672V30.3879H60.991V24.8562H59.6299V23.7624H64.0469Z" fill="#00722A"/>
<path d="M65.752 28.1069H66.7206L66.2368 25.3044L65.752 28.1069ZM67.1225 30.3879L66.917 29.1905H65.5656L65.3601 30.3879H64.0469L65.3883 23.7624H67.0834L68.4639 30.3879H67.1225Z" fill="#00722A"/>
<path d="M71.2003 29.034V27.8355C71.2003 27.745 71.1774 27.681 71.1304 27.6424C71.0822 27.6048 71.002 27.5865 70.8839 27.5865H69.8498C68.9258 27.5865 68.4639 27.1971 68.4639 26.4195V24.908C68.4639 24.1446 68.9579 23.7624 69.9438 23.7624H71.378C72.3639 23.7624 72.858 24.1446 72.858 24.908V25.773H71.1774V25.1174C71.1774 24.9436 71.0707 24.8562 70.8598 24.8562H70.4597C70.2499 24.8562 70.1456 24.9436 70.1456 25.1174V26.2833C70.1456 26.3738 70.1663 26.4378 70.2133 26.4764C70.2614 26.5141 70.3428 26.5334 70.4597 26.5334H71.4697C71.9718 26.5334 72.3329 26.6289 72.5507 26.82C72.772 27.0111 72.8809 27.2937 72.8809 27.6688V29.2312C72.8809 30.0027 72.3879 30.3879 71.3997 30.3879H69.9782C68.9843 30.3879 68.4856 30.0027 68.4856 29.2312V28.3783H70.1662V29.034C70.1662 29.2078 70.274 29.2942 70.4849 29.2942H70.8839C71.0948 29.2942 71.2003 29.2078 71.2003 29.034Z" fill="#00722A"/>
<path d="M77.2979 23.7624V24.8562H75.9234V30.3879H74.2428V24.8562H72.8809V23.7624H77.2979Z" fill="#00722A"/>
<path d="M80.2346 30.3879H78.8495V28.2421L77.2981 23.7624H78.7125L79.5373 26.878L80.3007 23.7624H81.7151L80.2346 28.2523V30.3879Z" fill="#00722A"/>
<path d="M47.6541 59.0284C47.6541 57.6536 46.6078 57.2034 44.5133 57.4131C44.2951 57.4343 44.2075 57.4865 44.1636 57.5792C44.0912 57.6894 44.0188 57.7995 43.9454 57.9096C43.4585 59.7906 42.9706 61.6678 42.4837 63.5411C42.7896 63.5179 43.0945 63.4928 43.4004 63.4657C45.6254 63.2696 46.9785 62.1402 47.5016 60.065C47.6112 59.6757 47.6541 59.3153 47.6541 59.0284ZM43.2479 65.0501C42.942 65.0762 42.5275 65.0656 42.113 65.0289C41.749 66.4201 41.386 67.8084 41.0219 69.1947C40.455 71.4864 39.6698 72.323 38.9056 72.3481C38.1633 72.3752 37.0951 72.039 36.4404 71.1308C37.1608 71.1299 37.7278 70.9656 38.2509 69.0498C39.1381 65.6945 40.0262 62.3228 40.9133 58.9376C41.0877 58.242 41.1963 57.7696 41.1963 57.4382C41.1963 56.9957 41.001 56.788 40.5426 56.6141C40.5779 56.5088 40.615 56.4035 40.6513 56.2982C42.3674 56.2016 44.0836 56.0518 45.7997 55.8634C48.8985 55.5147 50.7967 56.3358 50.7958 58.4217C50.7958 58.754 50.7529 59.1134 50.6433 59.5066C49.9448 62.2475 47.5674 64.6617 43.2479 65.0501Z" fill="#D91111"/>
<path d="M54.14 58.1161C53.3993 58.2268 52.8968 57.8034 52.8968 57.1309C52.8968 56.0987 53.9729 54.8666 55.073 54.6999C55.8387 54.5843 56.3172 55.0254 56.3172 55.7223C56.3172 56.8212 55.1931 57.9602 54.14 58.1161ZM49.6917 69.9553C49.6917 69.6407 49.7637 69.2505 49.8828 68.7859C50.3133 67.2263 50.7437 65.6658 51.1741 64.1043C51.3183 63.5691 51.4133 63.1966 51.4133 62.9496C51.4133 62.5457 51.2462 62.3889 50.9589 62.2703C51.6766 61.59 52.4424 60.9901 53.3032 60.8205C53.7577 60.7764 54.2361 61.2665 54.2361 62.0076C54.2361 62.187 54.1881 62.3732 54.14 62.583C53.5989 64.5552 53.0556 66.5274 52.5145 68.4967C52.4424 68.732 52.4184 68.9369 52.4184 69.0937C52.4184 69.4525 52.5866 69.6093 52.9679 69.6211C52.9532 69.6838 52.9365 69.7456 52.9208 69.8083C52.6816 70.1798 51.5575 71.1453 50.8878 71.2345C50.4094 71.2992 49.6917 71.1003 49.6917 69.9553Z" fill="#D91111"/>
<path d="M58.7013 59.8362C59.7899 59.7142 60.3254 60.0271 60.6668 60.1818C60.7946 60.287 60.8805 60.3578 61.0941 60.3215C61.1006 60.3205 61.1072 60.3196 61.1146 60.3178C61.2863 60.2879 61.6063 59.9992 62.0111 59.5466C62.8946 59.3948 63.778 59.2448 64.6605 59.0986C64.5672 59.4907 64.4749 59.8828 64.3825 60.2749C62.0195 62.9367 59.6556 65.62 57.2926 68.2846C57.3206 68.2799 57.3486 68.2753 57.3765 68.2697C58.9363 68.008 60.7732 69.9936 62.1175 69.8064C62.2686 69.8018 62.4813 69.7869 62.7164 69.7468C63.4002 69.6304 64.3396 69.3445 65.1512 68.8695C64.7883 70.2283 62.9729 71.0237 61.9691 71.197C61.9551 71.1988 61.9412 71.2016 61.9262 71.2044C59.705 71.5826 58.1667 69.2094 55.4977 69.6481C55.035 69.7236 54.5723 69.799 54.1086 69.8716C54.1945 69.5242 54.2794 69.1759 54.3652 68.8294C56.522 66.4163 58.6798 63.9771 60.8366 61.5388C60.7946 61.5462 60.7527 61.5527 60.7088 61.5602C60.1967 61.6477 59.8757 60.9362 59.15 61.06C59.136 61.0628 59.122 61.0647 59.107 61.0675C58.7656 61.1252 58.5305 61.4 58.5305 61.549C58.5305 61.6775 58.7012 61.7548 59.0641 61.7139C58.7442 62.4515 57.8253 63.2478 57.5053 63.3009C56.6302 63.448 56.1171 62.8501 56.1171 62.1898C56.1171 61.6123 56.4381 60.3056 58.7013 59.8362Z" fill="#D91111"/>
<path d="M69.0973 58.5201C70.2968 58.4174 70.8837 58.751 71.2592 58.9178C71.3998 59.029 71.4952 59.1035 71.7292 59.0733C71.7374 59.0724 71.7446 59.0714 71.7528 59.0705C71.9406 59.046 72.2925 58.7642 72.7399 58.3222C73.7106 58.2044 74.6812 58.0932 75.653 57.9942C75.5514 58.3863 75.4488 58.7783 75.3482 59.1704C72.7471 61.7366 70.148 64.3754 67.5469 67.0482C67.5776 67.0444 67.6105 67.0397 67.6413 67.035C69.3569 66.7843 71.3783 68.8416 72.8569 68.7087C73.021 68.7097 73.2571 68.704 73.5156 68.6739C74.2667 68.5853 75.3 68.3412 76.1937 67.9095C75.7935 69.261 73.7968 69.9697 72.6927 70.1092C72.6763 70.1111 72.6609 70.1129 72.6455 70.1148C70.2024 70.4183 68.5104 67.9802 65.5737 68.4213C65.0647 68.4985 64.5558 68.5768 64.0469 68.6559C64.1413 68.3025 64.2357 67.9501 64.329 67.5976C66.7014 65.1388 69.0747 62.6951 71.447 60.2966C71.3998 60.3022 71.3537 60.3088 71.3065 60.3145C70.7421 60.388 70.3912 59.6576 69.5908 59.7669C69.5765 59.7698 69.56 59.7716 69.5446 59.7745C69.1681 59.8254 68.9095 60.0996 68.9095 60.2504C68.9095 60.3805 69.0983 60.4615 69.4974 60.4276C69.1455 61.1655 68.1338 61.9571 67.7829 62.009C66.8183 62.1484 66.255 61.5434 66.255 60.8743C66.255 60.2947 66.608 58.9593 69.0973 58.5201Z" fill="#D91111"/>
<path d="M76.9316 63.1957C76.9316 64.4807 77.5811 65.1251 78.8334 65.0383C79.6925 64.9785 80.6885 64.265 80.806 63.8756C81.1849 62.5597 81.5639 61.2467 81.9428 59.9355C81.9884 59.8057 81.9884 59.6777 81.9884 59.5488C81.9884 58.8447 81.4544 58.219 80.4808 58.2675C77.4656 58.4403 76.9316 62.2655 76.9316 63.1957ZM80.806 56.9909C81.5021 56.9573 82.0117 57.0666 82.498 57.3514C82.498 57.3589 82.498 57.3654 82.498 57.3729C83.0563 57.0143 83.5193 56.9181 84.1231 56.8901C84.7027 56.905 85.0279 57.2066 85.0279 57.8473C85.0279 58.0826 84.9823 58.3385 84.8881 58.6598C84.3785 60.4211 83.8678 62.188 83.3572 63.9578C83.3339 64.0437 83.3339 64.1081 83.3339 64.1726C83.3339 64.6218 83.6814 64.8496 84.0765 64.845C84.114 64.844 84.1536 64.844 84.1921 64.844C84.1779 64.9001 84.1616 64.958 84.1454 65.0149C83.497 65.8564 82.6378 66.5129 81.5244 66.5587C81.5092 66.5596 81.493 66.5605 81.4788 66.5605C80.9438 66.5829 80.4119 66.1197 80.4119 65.4352C80.4119 65.3493 80.4109 65.2643 80.4342 65.1774C79.4838 66.06 78.3936 66.7333 77.4879 66.8061C75.3774 66.978 73.9854 66.158 73.9854 64.209C73.9854 61.3345 76.7229 57.1982 80.806 56.9909Z" fill="#D91111"/>
</svg>
